# Blender 4.4.3
# www.blender.org
mtllib Bob.mtl
o Torso
v 1.023345 0.936352 -0.947954
v 0.729526 -1.644871 -0.575906
v 1.000000 0.984249 1.039378
v 0.729526 -1.684249 0.613836
v 0.000000 -1.944871 -0.607876
v 0.000000 0.984249 1.039378
v 0.000000 -1.984249 0.581866
v 0.023345 0.936352 -0.947954
v 1.000000 1.826419 -0.800000
v 1.000000 1.800409 0.618862
v 0.000000 1.926419 -0.800000
v 0.000000 1.900409 0.618862
v 1.004281 0.094532 -0.843138
v 1.000000 0.142124 1.126009
v 0.004281 -0.055468 -0.843138
v 0.000000 -0.007876 1.126009
v 0.955770 -0.852028 -0.816395
v 0.895977 -0.898870 0.999357
v 0.016278 -0.882355 -0.830937
v -0.043514 -0.929197 0.984815
v 1.110258 0.976373 0.000000
v 0.729526 -1.700000 0.031969
v 0.000000 -2.000000 0.000000
v 0.000000 1.000000 0.000000
v 1.000000 1.926419 -0.200000
v 0.000000 2.026419 -0.200000
v 1.110258 0.126373 0.000000
v 1.036132 -0.875449 0.000912
v -1.023345 0.936352 -0.947954
v -0.729526 -1.644871 -0.575906
v -1.000000 0.984249 1.039378
v -0.729526 -1.684249 0.613836
v -0.023345 0.936352 -0.947954
v -1.000000 1.826419 -0.800000
v -1.000000 1.800409 0.618862
v -1.004281 0.094532 -0.843138
v -1.000000 0.142124 1.126009
v -0.004281 -0.055468 -0.843138
v -0.955770 -0.852028 -0.816395
v -0.895977 -0.898870 0.999357
v -0.016278 -0.882355 -0.830937
v 0.043514 -0.929197 0.984815
v -1.110258 0.976373 0.000000
v -0.729526 -1.700000 0.031969
v -1.000000 1.926419 -0.200000
v -1.110258 0.126373 0.000000
v -1.036132 -0.875449 0.000912
vn 0.6504 0.0157 -0.7594
vn 0.5930 -0.5974 -0.5399
vn 0.6319 0.2179 0.7438
vn 0.5950 -0.6440 0.4809
vn -0.0000 -0.7962 -0.6050
vn -0.1791 0.2652 0.9474
vn -0.0000 -0.8523 0.5231
vn -0.3847 0.0117 -0.9230
vn 0.5911 0.5567 -0.5837
vn 0.6115 0.6292 0.4798
vn -0.2043 0.7007 -0.6836
vn -0.3714 0.7507 0.5463
vn 0.6801 -0.0745 -0.7293
vn 0.6609 -0.0328 0.7497
vn 0.0127 -0.0594 -0.9982
vn -0.0000 -0.0367 0.9993
vn 0.6560 -0.2074 -0.7257
vn 0.6218 -0.2903 0.7274
vn 0.0449 -0.1383 -0.9894
vn 0.0192 -0.2819 0.9593
vn 0.9994 0.0354 0.0039
vn 0.7118 -0.7020 -0.0213
vn -0.0000 -0.9995 -0.0327
vn -0.9997 -0.0162 -0.0187
vn 0.6714 0.7411 -0.0059
vn -0.4194 0.9078 -0.0056
vn 0.9993 -0.0378 -0.0045
vn 0.9812 -0.1925 0.0109
vn -0.6504 0.0157 -0.7594
vn -0.5930 -0.5974 -0.5399
vn -0.6319 0.2179 0.7438
vn -0.5950 -0.6440 0.4809
vn 0.3847 0.0117 -0.9230
vn -0.5911 0.5567 -0.5837
vn -0.6115 0.6292 0.4798
vn -0.6801 -0.0745 -0.7293
vn -0.6609 -0.0328 0.7497
vn -0.0127 -0.0594 -0.9982
vn -0.6560 -0.2074 -0.7257
vn -0.6218 -0.2903 0.7274
vn -0.0449 -0.1383 -0.9894
vn -0.0192 -0.2819 0.9593
vn -0.9994 0.0354 0.0039
vn -0.7118 -0.7020 -0.0213
vn -0.6714 0.7411 -0.0059
vn -0.9993 -0.0378 -0.0045
vn -0.9812 -0.1925 0.0109
vt 0.722444 0.133912
vt 0.726755 0.146742
vt 0.717562 0.146742
vt 0.744885 0.109797
vt 0.769224 0.119644
vt 0.755724 0.128028
vt 0.741244 0.050057
vt 0.733005 0.094637
vt 0.704172 0.073518
vt 0.793287 0.146742
vt 0.757108 0.146742
vt 0.767519 0.081108
vt 0.750511 0.084246
vt 0.775560 0.089571
vt 0.811076 0.104937
vt 0.779346 0.105441
vt 0.759797 0.101605
vt 0.689218 0.309854
vt 0.709064 0.329338
vt 0.689218 0.336473
vt 0.740814 0.133612
vt 0.741393 0.146102
vt 0.718556 0.110982
vt 0.689218 0.105308
vt 0.730480 0.121834
vt 0.730113 0.137426
vt 0.712697 0.127914
vt 0.699477 0.146742
vt 0.756272 0.010913
vt 0.784921 0.056691
vt 0.722444 0.159571
vt 0.744885 0.183686
vt 0.769224 0.173839
vt 0.759797 0.191879
vt 0.733005 0.198846
vt 0.741244 0.243426
vt 0.704172 0.219966
vt 0.755724 0.165456
vt 0.767519 0.212376
vt 0.750511 0.209238
vt 0.775560 0.203913
vt 0.811076 0.188546
vt 0.800003 0.219245
vt 0.779346 0.188043
vt 0.740814 0.159872
vt 0.718556 0.182501
vt 0.689218 0.188176
vt 0.730480 0.171650
vt 0.730113 0.156058
vt 0.712697 0.165569
vt 0.741393 0.147381
vt 0.784921 0.236793
vt 0.756264 0.282573
vt 0.800003 0.074238
vt 0.715111 0.304400
vt 0.796942 0.032697
s 1
usemtl BobMat
f 22/1/22 7/2/7 23/3/23
f 27/4/27 3/5/3 14/6/14
f 8/7/8 13/8/13 15/9/15
f 14/6/14 6/10/6 16/11/16
f 8/7/8 9/12/9 1/13/1
f 25/14/25 12/15/12 10/16/10
f 21/17/21 9/12/9 25/14/25
f 24/18/24 12/19/12 26/20/26
f 6/10/6 10/16/10 12/15/12
f 18/21/18 16/11/16 20/22/20
f 15/9/15 17/23/17 19/24/19
f 27/4/27 18/21/18 28/25/28
f 28/25/28 4/26/4 22/1/22
f 19/24/19 2/27/2 5/28/5
f 4/26/4 20/22/20 7/2/7
f 2/27/2 28/25/28 22/1/22
f 17/23/17 27/4/27 28/25/28
f 24/29/24 11/30/11 8/7/8
f 21/17/21 10/16/10 3/5/3
f 11/30/11 25/14/25 9/12/9
f 13/8/13 21/17/21 27/4/27
f 2/27/2 23/3/23 5/28/5
f 7/2/7 44/31/44 23/3/23
f 46/32/46 31/33/31 43/34/43
f 36/35/36 33/36/33 38/37/38
f 37/38/37 6/10/6 31/33/31
f 34/39/34 33/36/33 29/40/29
f 45/41/45 12/42/12 26/43/26
f 43/34/43 34/39/34 29/40/29
f 6/10/6 35/44/35 31/33/31
f 40/45/40 16/11/16 37/38/37
f 39/46/39 38/37/38 41/47/41
f 40/45/40 46/32/46 47/48/47
f 32/49/32 47/48/47 44/31/44
f 30/50/30 41/47/41 5/28/5
f 32/49/32 42/51/42 40/45/40
f 30/50/30 47/48/47 39/46/39
f 39/46/39 46/32/46 36/35/36
f 11/52/11 24/53/24 33/36/33
f 35/44/35 43/34/43 31/33/31
f 45/41/45 11/52/11 34/39/34
f 36/35/36 43/34/43 29/40/29
f 23/3/23 30/50/30 5/28/5
f 22/1/22 4/26/4 7/2/7
f 27/4/27 21/17/21 3/5/3
f 8/7/8 1/13/1 13/8/13
f 14/6/14 3/5/3 6/10/6
f 8/7/8 11/30/11 9/12/9
f 25/14/25 26/54/26 12/15/12
f 21/17/21 1/13/1 9/12/9
f 24/18/24 6/55/6 12/19/12
f 6/10/6 3/5/3 10/16/10
f 18/21/18 14/6/14 16/11/16
f 15/9/15 13/8/13 17/23/17
f 27/4/27 14/6/14 18/21/18
f 28/25/28 18/21/18 4/26/4
f 19/24/19 17/23/17 2/27/2
f 4/26/4 18/21/18 20/22/20
f 2/27/2 17/23/17 28/25/28
f 17/23/17 13/8/13 27/4/27
f 24/29/24 26/56/26 11/30/11
f 21/17/21 25/14/25 10/16/10
f 11/30/11 26/54/26 25/14/25
f 13/8/13 1/13/1 21/17/21
f 2/27/2 22/1/22 23/3/23
f 7/2/7 32/49/32 44/31/44
f 46/32/46 37/38/37 31/33/31
f 36/35/36 29/40/29 33/36/33
f 37/38/37 16/11/16 6/10/6
f 34/39/34 11/52/11 33/36/33
f 45/41/45 35/44/35 12/42/12
f 43/34/43 45/41/45 34/39/34
f 6/10/6 12/42/12 35/44/35
f 40/45/40 42/51/42 16/11/16
f 39/46/39 36/35/36 38/37/38
f 40/45/40 37/38/37 46/32/46
f 32/49/32 40/45/40 47/48/47
f 30/50/30 39/46/39 41/47/41
f 32/49/32 7/2/7 42/51/42
f 30/50/30 44/31/44 47/48/47
f 39/46/39 47/48/47 46/32/46
f 35/44/35 45/41/45 43/34/43
f 45/41/45 26/43/26 11/52/11
f 36/35/36 46/32/46 43/34/43
f 23/3/23 44/31/44 30/50/30
o Forearms
v 3.000000 1.500000 -0.360000
v 1.300000 1.500000 -0.440000
v 3.000000 1.842380 -0.111246
v 1.300000 1.918465 -0.135968
v 3.000000 1.711603 0.291246
v 1.300000 1.758626 0.355967
v 3.000000 1.288397 0.291246
v 1.300000 1.241375 0.355967
v 3.000000 1.157620 -0.111246
v 1.300000 1.081535 -0.135968
v 0.980000 1.838957 -0.110134
v 0.980000 1.500000 -0.356400
v 0.980000 1.709487 0.288334
v 0.980000 1.290513 0.288334
v 0.980000 1.161044 -0.110134
v -3.000000 1.500000 -0.360000
v -1.300000 1.500000 -0.440000
v -3.000000 1.842380 -0.111246
v -1.300000 1.918465 -0.135968
v -3.000000 1.711603 0.291246
v -1.300000 1.758626 0.355967
v -3.000000 1.288397 0.291246
v -1.300000 1.241375 0.355967
v -3.000000 1.157620 -0.111246
v -1.300000 1.081535 -0.135968
v -0.980000 1.838957 -0.110134
v -0.980000 1.500000 -0.356400
v -0.980000 1.709487 0.288334
v -0.980000 1.290514 0.288334
v -0.980000 1.161044 -0.110134
vn 0.6133 -0.0000 -0.7899
vn -0.0987 -0.0000 -0.9951
vn 0.6133 0.7512 -0.2441
vn -0.0987 0.9464 -0.3075
vn 0.6133 0.4643 0.6390
vn -0.0987 0.5849 0.8051
vn 0.6133 -0.4643 0.6390
vn -0.0987 -0.5849 0.8051
vn 0.6133 -0.7512 -0.2441
vn -0.0987 -0.9464 -0.3075
vn -0.6901 0.6883 -0.2236
vn -0.6901 -0.0000 -0.7237
vn -0.6901 0.4254 0.5855
vn -0.6901 -0.4254 0.5855
vn -0.6901 -0.6883 -0.2236
vn -0.6133 -0.0000 -0.7899
vn 0.0987 -0.0000 -0.9951
vn -0.6133 0.7512 -0.2441
vn 0.0987 0.9464 -0.3075
vn -0.6133 0.4643 0.6390
vn 0.0987 0.5849 0.8051
vn -0.6133 -0.4643 0.6390
vn 0.0987 -0.5849 0.8051
vn -0.6133 -0.7512 -0.2441
vn 0.0987 -0.9464 -0.3075
vn 0.6901 0.6883 -0.2236
vn 0.6901 -0.0000 -0.7237
vn 0.6901 0.4254 0.5855
vn 0.6901 -0.4254 0.5855
vn 0.6901 -0.6883 -0.2236
vt 0.206059 0.790597
vt 0.248183 0.653085
vt 0.344246 0.788284
vt 0.207057 0.788325
vt 0.085806 0.704591
vt 0.205334 0.787047
vt 0.085807 0.880333
vt 0.204402 0.788634
vt 0.203994 0.788382
vt 0.203095 0.790194
vt 0.247458 0.917881
vt 0.964734 0.803314
vt 0.925331 0.749080
vt 0.964734 0.736277
vt 0.988449 0.967335
vt 0.925331 0.946826
vt 0.949440 0.913643
vt 0.204406 0.789311
vt 0.205222 0.788171
vt 0.205296 0.789493
vt 0.205815 0.788756
vt 0.344107 0.494865
vt 0.199864 0.492787
vt 0.245187 0.359997
vt 0.246666 0.631259
vt 0.203675 0.493021
vt 0.085806 0.580831
vt 0.204663 0.496741
vt 0.201864 0.496844
vt 0.201535 0.499168
vt 0.198444 0.496516
vt 0.085807 0.412128
vt 0.925331 0.680932
vt 0.989087 0.660216
vt 0.989087 0.701647
vt 0.964635 0.425927
vt 0.925625 0.372235
vt 0.964635 0.359560
vt 0.202472 0.494528
vt 0.201083 0.494597
vt 0.989087 0.769796
vt 0.925331 0.790511
vt 0.988449 0.926318
vt 0.949440 0.980009
vt 0.202730 0.495902
vt 0.949683 0.714450
vt 0.949683 0.647413
vt 0.988744 0.392743
vt 0.925625 0.413252
vt 0.200933 0.495889
s 1
usemtl BobMat
f 49/57/49 50/58/50 48/59/48
f 51/60/51 52/61/52 50/58/50
f 53/62/53 54/63/54 52/61/52
f 53/62/53 61/64/61 55/65/55
f 54/63/54 57/66/57 56/67/56
f 57/66/57 48/59/48 56/67/56
f 50/68/50 54/69/54 56/70/56
f 59/71/59 61/72/61 60/73/60
f 55/65/55 62/74/62 57/66/57
f 51/60/51 60/75/60 53/62/53
f 57/66/57 59/76/59 49/57/49
f 49/57/49 58/77/58 51/60/51
f 65/78/65 64/79/64 63/80/63
f 67/81/67 66/82/66 65/78/65
f 69/83/69 68/84/68 67/81/67
f 76/85/76 68/84/68 70/86/70
f 69/83/69 72/87/72 70/86/70
f 63/80/63 72/87/72 71/88/71
f 71/89/71 67/90/67 65/91/65
f 75/92/75 77/93/77 74/94/74
f 72/87/72 76/85/76 70/86/70
f 68/84/68 73/95/73 66/82/66
f 74/96/74 72/87/72 64/79/64
f 66/82/66 74/96/74 64/79/64
f 49/57/49 51/60/51 50/58/50
f 51/60/51 53/62/53 52/61/52
f 53/62/53 55/65/55 54/63/54
f 53/62/53 60/75/60 61/64/61
f 54/63/54 55/65/55 57/66/57
f 57/66/57 49/57/49 48/59/48
f 56/70/56 48/97/48 50/68/50
f 50/68/50 52/98/52 54/69/54
f 60/73/60 58/99/58 59/71/59
f 59/71/59 62/100/62 61/72/61
f 55/65/55 61/64/61 62/74/62
f 51/60/51 58/77/58 60/75/60
f 57/66/57 62/74/62 59/76/59
f 49/57/49 59/76/59 58/77/58
f 65/78/65 66/82/66 64/79/64
f 67/81/67 68/84/68 66/82/66
f 69/83/69 70/86/70 68/84/68
f 76/85/76 75/101/75 68/84/68
f 69/83/69 71/88/71 72/87/72
f 63/80/63 64/79/64 72/87/72
f 65/91/65 63/102/63 71/89/71
f 71/89/71 69/103/69 67/90/67
f 74/94/74 73/104/73 75/92/75
f 75/92/75 76/105/76 77/93/77
f 72/87/72 77/106/77 76/85/76
f 68/84/68 75/101/75 73/95/73
f 74/96/74 77/106/77 72/87/72
f 66/82/66 73/95/73 74/96/74
o Arms
v 4.987000 1.500000 -0.356400
v 3.304000 1.500000 -0.435600
v 4.987000 1.771165 -0.110134
v 3.304000 1.914280 -0.134608
v 4.987000 1.667589 0.288334
v 3.304000 1.756039 0.352408
v 4.987000 1.332411 0.288334
v 3.304000 1.243961 0.352408
v 4.987000 1.228835 -0.110134
v 3.304000 1.085720 -0.134608
v 2.987200 1.835567 -0.109032
v 2.987200 1.500000 -0.352836
v 2.987200 1.707392 0.285450
v 2.987200 1.292608 0.285450
v 2.987200 1.164433 -0.109032
v -4.987000 1.500000 -0.356400
v -3.304000 1.500000 -0.435600
v -4.987000 1.771165 -0.110134
v -3.304000 1.914280 -0.134608
v -4.987000 1.667589 0.288334
v -3.304000 1.756039 0.352408
v -4.987000 1.332410 0.288334
v -3.304000 1.243961 0.352408
v -4.987000 1.228835 -0.110134
v -3.304000 1.085720 -0.134608
v -2.987200 1.835567 -0.109032
v -2.987200 1.500000 -0.352836
v -2.987200 1.707392 0.285450
v -2.987199 1.292608 0.285450
v -2.987199 1.164433 -0.109032
vn 0.6001 -0.0000 -0.8000
vn -0.0864 -0.0000 -0.9963
vn 0.6304 0.7421 -0.2278
vn -0.0801 0.9487 -0.3058
vn 0.6151 0.4777 0.6273
vn -0.0877 0.5904 0.8023
vn 0.6151 -0.4777 0.6273
vn -0.0877 -0.5904 0.8023
vn 0.6304 -0.7421 -0.2278
vn -0.0801 -0.9487 -0.3058
vn -0.6901 0.6883 -0.2236
vn -0.6901 -0.0000 -0.7237
vn -0.6901 0.4254 0.5855
vn -0.6901 -0.4254 0.5855
vn -0.6901 -0.6883 -0.2236
vn -0.6001 -0.0000 -0.8000
vn 0.0864 -0.0000 -0.9963
vn -0.6304 0.7421 -0.2278
vn 0.0801 0.9487 -0.3058
vn -0.6151 0.4777 0.6273
vn 0.0877 0.5904 0.8023
vn -0.6151 -0.4777 0.6273
vn 0.0877 -0.5904 0.8023
vn -0.6304 -0.7421 -0.2278
vn 0.0801 -0.9487 -0.3058
vn 0.6901 0.6883 -0.2236
vn 0.6901 -0.0000 -0.7237
vn 0.6901 0.4254 0.5855
vn 0.6901 -0.4254 0.5855
vn 0.6901 -0.6883 -0.2236
vt 0.556171 0.139569
vt 0.522793 0.153715
vt 0.522375 0.154363
vt 0.500108 0.187709
vt 0.521885 0.155270
vt 0.520593 0.156184
vt 0.387021 0.112249
vt 0.481356 0.145597
vt 0.519137 0.154932
vt 0.862258 0.219197
vt 0.862258 0.138391
vt 0.909754 0.153823
vt 0.514974 0.010913
vt 0.516233 0.116537
vt 0.546484 0.183662
vt 0.387021 0.337733
vt 0.667392 0.098390
vt 0.633704 0.297104
vt 0.231537 0.152687
vt 0.234996 0.116281
vt 0.232096 0.154996
vt 0.205428 0.183361
vt 0.196728 0.138679
vt 0.228712 0.154332
vt 0.252454 0.187635
vt 0.117360 0.296506
vt 0.231582 0.157255
vt 0.228087 0.156517
vt 0.270387 0.147314
vt 0.880400 0.321830
vt 0.832903 0.256456
vt 0.880400 0.241024
vt 0.365195 0.113918
vt 0.237534 0.010913
vt 0.085807 0.097908
vt 0.909754 0.203764
vt 0.832903 0.178794
vt 0.365195 0.338170
vt 0.909754 0.281427
vt 0.832903 0.306397
s 1
usemtl BobMat
f 79/107/79 80/108/80 78/109/78
f 80/108/80 83/110/83 82/111/82
f 83/110/83 84/112/84 82/111/82
f 83/110/83 91/113/91 85/114/85
f 85/114/85 86/115/86 84/112/84
f 86/115/86 79/107/79 78/109/78
f 80/108/80 84/112/84 86/115/86
f 89/116/89 91/117/91 90/118/90
f 85/114/85 92/119/92 87/120/87
f 81/121/81 90/122/90 83/110/83
f 87/120/87 89/123/89 79/107/79
f 79/107/79 88/124/88 81/121/81
f 95/125/95 94/126/94 93/127/93
f 95/125/95 98/128/98 96/129/96
f 97/130/97 100/131/100 98/128/98
f 100/131/100 105/132/105 98/128/98
f 101/133/101 100/131/100 99/134/99
f 101/133/101 94/126/94 102/135/102
f 101/133/101 97/130/97 95/125/95
f 105/136/105 107/137/107 104/138/104
f 107/139/107 100/131/100 102/135/102
f 105/132/105 96/129/96 98/128/98
f 104/140/104 102/135/102 94/126/94
f 103/141/103 94/126/94 96/129/96
f 79/107/79 81/121/81 80/108/80
f 80/108/80 81/121/81 83/110/83
f 83/110/83 85/114/85 84/112/84
f 83/110/83 90/122/90 91/113/91
f 85/114/85 87/120/87 86/115/86
f 86/115/86 87/120/87 79/107/79
f 86/115/86 78/109/78 80/108/80
f 80/108/80 82/111/82 84/112/84
f 90/118/90 88/142/88 89/116/89
f 89/116/89 92/143/92 91/117/91
f 85/114/85 91/113/91 92/119/92
f 81/121/81 88/124/88 90/122/90
f 87/120/87 92/119/92 89/123/89
f 79/107/79 89/123/89 88/124/88
f 95/125/95 96/129/96 94/126/94
f 95/125/95 97/130/97 98/128/98
f 97/130/97 99/134/99 100/131/100
f 100/131/100 106/144/106 105/132/105
f 101/133/101 102/135/102 100/131/100
f 101/133/101 93/127/93 94/126/94
f 95/125/95 93/127/93 101/133/101
f 101/133/101 99/134/99 97/130/97
f 104/138/104 103/145/103 105/136/105
f 105/136/105 106/146/106 107/137/107
f 107/139/107 106/144/106 100/131/100
f 105/132/105 103/141/103 96/129/96
f 104/140/104 107/139/107 102/135/102
f 103/141/103 104/140/104 94/126/94
o Hands
v 5.013088 1.320000 0.413999
v 5.013088 1.616185 0.413999
v 5.000689 1.320000 -0.357158
v 5.000689 1.680000 -0.357158
v 5.820000 1.340000 0.230000
v 5.820000 1.660000 0.230000
v 5.980000 1.340000 -0.330000
v 5.980000 1.660000 -0.330000
v 5.666667 1.300000 -0.400000
v 5.333333 1.300000 -0.400000
v 5.333333 1.700000 -0.400000
v 5.666667 1.700000 -0.400000
v 5.262730 1.300000 0.355625
v 5.523494 1.300000 0.287533
v 5.523494 1.700000 0.287533
v 5.262730 1.636185 0.355625
v 5.119595 1.300000 0.717114
v 5.119595 1.636185 0.717114
v 5.368548 1.636185 0.615898
v 5.368548 1.300000 0.615898
v 5.239902 1.336452 0.947999
v 5.239902 1.599733 0.947999
v 5.443481 1.599733 0.865230
v 5.443481 1.336452 0.865230
v -5.013088 1.320000 0.413999
v -5.013088 1.616185 0.413999
v -5.000689 1.320000 -0.357158
v -5.000689 1.680000 -0.357158
v -5.820000 1.340000 0.230000
v -5.820000 1.660000 0.230000
v -5.980000 1.340000 -0.330000
v -5.980000 1.660000 -0.330000
v -5.666667 1.300000 -0.400000
v -5.333333 1.300000 -0.400000
v -5.333333 1.700000 -0.400000
v -5.666667 1.700000 -0.400000
v -5.262730 1.300000 0.355625
v -5.523494 1.300000 0.287533
v -5.523494 1.700000 0.287533
v -5.262730 1.636185 0.355625
v -5.119595 1.300000 0.717114
v -5.119595 1.636185 0.717114
v -5.368547 1.636185 0.615898
v -5.368547 1.300000 0.615898
v -5.239902 1.336452 0.947999
v -5.239902 1.599733 0.947999
v -5.443480 1.599733 0.865230
v -5.443480 1.336452 0.865230
vn -0.4588 -0.8856 0.0717
vn -0.4715 0.8757 0.1043
vn -0.4078 -0.8170 -0.4078
vn -0.3813 0.8546 -0.3525
vn 0.4272 -0.7734 0.4683
vn 0.4272 0.7734 0.4684
vn 0.5101 -0.7887 -0.3432
vn 0.5101 0.7887 -0.3432
vn 0.0997 -0.8963 -0.4321
vn -0.0514 -0.8919 -0.4493
vn -0.0681 0.9044 -0.4213
vn 0.0997 0.8963 -0.4321
vn 0.1134 -0.9866 0.1170
vn 0.1347 -0.9077 0.3975
vn 0.0249 0.9220 0.3864
vn 0.0879 0.9711 0.2219
vn -0.3108 -0.9331 0.1807
vn -0.3108 0.9331 0.1807
vn 0.3413 0.9362 -0.0838
vn 0.3413 -0.9362 -0.0838
vn -0.1678 -0.7456 0.6449
vn -0.1678 0.7456 0.6450
vn 0.5064 0.7975 0.3279
vn 0.5064 -0.7975 0.3279
vn 0.4588 -0.8856 0.0717
vn 0.4715 0.8757 0.1043
vn 0.4078 -0.8170 -0.4078
vn 0.3813 0.8546 -0.3525
vn -0.4272 -0.7734 0.4684
vn -0.4272 0.7734 0.4683
vn -0.5101 -0.7887 -0.3432
vn -0.5101 0.7887 -0.3432
vn -0.0997 -0.8963 -0.4321
vn 0.0514 -0.8919 -0.4493
vn 0.0681 0.9044 -0.4213
vn -0.0997 0.8963 -0.4321
vn -0.1134 -0.9866 0.1170
vn -0.1347 -0.9077 0.3975
vn -0.0249 0.9220 0.3864
vn -0.0879 0.9711 0.2219
vn 0.3108 -0.9331 0.1807
vn 0.3108 0.9331 0.1807
vn -0.3413 0.9362 -0.0838
vn -0.3413 -0.9362 -0.0838
vn 0.1678 -0.7456 0.6449
vn 0.1678 0.7456 0.6450
vn -0.5064 0.7975 0.3279
vn -0.5064 -0.7975 0.3279
vt 0.737221 0.332324
vt 0.739003 0.330176
vt 0.738921 0.332387
vt 0.927155 0.509870
vt 0.927875 0.511937
vt 0.927155 0.512167
vt 0.931581 0.257510
vt 0.933208 0.259348
vt 0.931581 0.259348
vt 0.605837 0.736398
vt 0.605028 0.735815
vt 0.605604 0.735532
vt 0.604306 0.738718
vt 0.603977 0.736895
vt 0.604660 0.736751
vt 0.605837 0.683514
vt 0.605262 0.685583
vt 0.605072 0.683390
vt 0.604306 0.683400
vt 0.603977 0.685227
vt 0.603589 0.683632
vt 0.604660 0.685359
vt 0.605837 0.738609
vt 0.605262 0.736564
vt 0.605072 0.738728
vt 0.809113 0.332167
vt 0.809807 0.330100
vt 0.809807 0.332397
vt 0.810421 0.330466
vt 0.810421 0.332397
vt 0.925625 0.509985
vt 0.926389 0.512167
vt 0.925625 0.512052
vt 0.926389 0.509870
vt 0.604866 0.735086
vt 0.605336 0.734855
vt 0.931581 0.162514
vt 0.932312 0.164445
vt 0.931581 0.164445
vt 0.737074 0.333202
vt 0.605837 0.685754
vt 0.605028 0.686330
vt 0.644158 0.935038
vt 0.644646 0.936550
vt 0.644158 0.936550
vt 0.738769 0.333944
vt 0.737258 0.333888
vt 0.932312 0.162514
vt 0.933017 0.164236
vt 0.605604 0.686612
vt 0.604865 0.687065
vt 0.760830 0.330176
vt 0.762612 0.332324
vt 0.760912 0.332387
vt 0.925625 0.536061
vt 0.926345 0.533994
vt 0.926345 0.536291
vt 0.931581 0.283012
vt 0.933208 0.281175
vt 0.933208 0.283012
vt 0.736937 0.305943
vt 0.737746 0.305360
vt 0.737513 0.306109
vt 0.738469 0.308263
vt 0.738797 0.306440
vt 0.739186 0.308041
vt 0.604165 0.711316
vt 0.603589 0.709247
vt 0.604355 0.709122
vt 0.605450 0.710959
vt 0.605121 0.709132
vt 0.605837 0.709364
vt 0.604767 0.711092
vt 0.736937 0.308154
vt 0.737703 0.308273
vt 0.738114 0.306296
vt 0.810358 0.306697
vt 0.811020 0.304630
vt 0.811020 0.306467
vt 0.809780 0.304766
vt 0.810358 0.304400
vt 0.927875 0.536176
vt 0.927111 0.533994
vt 0.927875 0.534109
vt 0.927111 0.536291
vt 0.737171 0.305077
vt 0.737909 0.304631
vt 0.933017 0.188202
vt 0.932285 0.186272
vt 0.933017 0.186272
vt 0.762759 0.333202
vt 0.604398 0.712062
vt 0.603589 0.711487
vt 0.666472 0.936550
vt 0.666915 0.935038
vt 0.666915 0.936550
vt 0.762575 0.333888
vt 0.760830 0.333274
vt 0.931581 0.187993
vt 0.932285 0.188202
vt 0.604561 0.712798
vt 0.603823 0.712344
vt 0.736937 0.330100
vt 0.927875 0.510100
vt 0.933208 0.257510
vt 0.603589 0.738495
vt 0.809113 0.330329
vt 0.739003 0.333274
vt 0.644646 0.935038
vt 0.933017 0.162724
vt 0.605336 0.687296
vt 0.762896 0.330100
vt 0.925625 0.534223
vt 0.931581 0.281175
vt 0.809780 0.306697
vt 0.737438 0.304400
vt 0.666472 0.935038
vt 0.761064 0.333944
vt 0.931581 0.186481
vt 0.604091 0.713028
s 1
usemtl BobMat
f 109/147/109 110/148/110 108/149/108
f 119/150/119 114/151/114 116/152/116
f 115/153/115 112/154/112 114/155/114
f 108/156/108 127/157/127 124/158/124
f 116/159/116 112/160/112 121/161/121
f 111/162/111 123/163/123 118/164/118
f 119/165/119 113/166/113 115/167/115
f 118/164/118 122/168/122 119/165/119
f 110/169/110 120/170/120 108/156/108
f 117/171/117 121/161/121 120/170/120
f 112/172/112 122/173/122 121/174/121
f 121/174/121 123/175/123 120/176/120
f 111/177/111 117/178/117 110/179/110
f 118/180/118 116/152/116 117/178/117
f 124/158/124 131/181/131 128/182/128
f 123/183/123 127/184/127 120/185/120
f 108/149/108 125/186/125 109/147/109
f 109/187/109 126/188/126 123/163/123
f 130/189/130 128/190/128 131/191/131
f 125/186/125 128/192/128 129/193/129
f 126/194/126 131/195/131 127/184/127
f 125/196/125 130/197/130 126/188/126
f 134/198/134 133/199/133 132/200/132
f 138/201/138 143/202/143 140/203/140
f 136/204/136 139/205/139 138/206/138
f 132/207/132 151/208/151 144/209/144
f 140/210/140 136/211/136 138/212/138
f 147/213/147 135/214/135 142/215/142
f 137/216/137 143/217/143 139/218/139
f 146/219/146 142/215/142 143/217/143
f 134/220/134 144/209/144 141/221/141
f 141/221/141 145/222/145 140/210/140
f 145/223/145 137/224/137 136/225/136
f 145/223/145 147/226/147 146/227/146
f 134/228/134 142/229/142 135/230/135
f 140/203/140 142/229/142 141/231/141
f 148/232/148 155/233/155 151/208/151
f 144/234/144 150/235/150 147/236/147
f 149/237/149 132/200/132 133/199/133
f 150/238/150 133/239/133 147/213/147
f 152/240/152 154/241/154 155/242/155
f 153/243/153 148/244/148 149/237/149
f 155/245/155 150/235/150 151/246/151
f 154/247/154 149/248/149 150/238/150
f 109/147/109 111/249/111 110/148/110
f 119/150/119 115/250/115 114/151/114
f 115/153/115 113/251/113 112/154/112
f 108/156/108 120/170/120 127/157/127
f 116/159/116 114/252/114 112/160/112
f 111/162/111 109/187/109 123/163/123
f 119/165/119 122/168/122 113/166/113
f 118/164/118 123/163/123 122/168/122
f 110/169/110 117/171/117 120/170/120
f 117/171/117 116/159/116 121/161/121
f 112/172/112 113/253/113 122/173/122
f 121/174/121 122/173/122 123/175/123
f 111/177/111 118/180/118 117/178/117
f 118/180/118 119/150/119 116/152/116
f 124/158/124 127/157/127 131/181/131
f 123/183/123 126/194/126 127/184/127
f 108/149/108 124/254/124 125/186/125
f 109/187/109 125/196/125 126/188/126
f 130/189/130 129/255/129 128/190/128
f 125/186/125 124/254/124 128/192/128
f 126/194/126 130/256/130 131/195/131
f 125/196/125 129/257/129 130/197/130
f 134/198/134 135/258/135 133/199/133
f 138/201/138 139/259/139 143/202/143
f 136/204/136 137/260/137 139/205/139
f 132/207/132 148/232/148 151/208/151
f 140/210/140 145/222/145 136/211/136
f 147/213/147 133/239/133 135/214/135
f 137/216/137 146/219/146 143/217/143
f 146/219/146 147/213/147 142/215/142
f 134/220/134 132/207/132 144/209/144
f 141/221/141 144/209/144 145/222/145
f 145/223/145 146/227/146 137/224/137
f 145/223/145 144/261/144 147/226/147
f 134/228/134 141/231/141 142/229/142
f 140/203/140 143/202/143 142/229/142
f 148/232/148 152/262/152 155/233/155
f 144/234/144 151/246/151 150/235/150
f 149/237/149 148/244/148 132/200/132
f 150/238/150 149/248/149 133/239/133
f 152/240/152 153/263/153 154/241/154
f 153/243/153 152/264/152 148/244/148
f 155/245/155 154/265/154 150/235/150
f 154/247/154 153/266/153 149/248/149
o UpperLegs
v 0.713302 -3.795053 -0.360000
v 0.565138 -2.101522 -0.440000
v 1.054380 -3.765213 -0.111246
v 0.982010 -2.065051 -0.135968
v 0.924100 -3.776611 0.291246
v 0.822779 -2.078981 0.355967
v 0.502505 -3.813496 0.291246
v 0.307496 -2.124063 0.355968
v 0.372225 -3.824893 -0.111246
v 0.148265 -2.137994 -0.135967
v 0.874915 -1.753198 -0.110134
v 0.537248 -1.782740 -0.356400
v 0.745938 -1.764482 0.288334
v 0.328558 -1.800998 0.288334
v 0.199581 -1.812282 -0.110134
v -0.713302 -3.795053 -0.360000
v -0.565138 -2.101522 -0.440000
v -1.054380 -3.765213 -0.111246
v -0.982010 -2.065051 -0.135968
v -0.924100 -3.776611 0.291246
v -0.822779 -2.078981 0.355967
v -0.502505 -3.813495 0.291246
v -0.307496 -2.124063 0.355968
v -0.372225 -3.824893 -0.111246
v -0.148265 -2.137994 -0.135967
v -0.874915 -1.753198 -0.110134
v -0.537248 -1.782740 -0.356400
v -0.745938 -1.764482 0.288334
v -0.328559 -1.800998 0.288334
v -0.199581 -1.812282 -0.110134
vn 0.0535 -0.6109 -0.7899
vn -0.0086 0.0983 -0.9951
vn 0.8018 -0.5455 -0.2441
vn 0.9342 0.1808 -0.3075
vn 0.5159 -0.5705 0.6390
vn 0.5741 0.1493 0.8051
vn -0.4091 -0.6514 0.6390
vn -0.5913 0.0473 0.8051
vn -0.6949 -0.6764 -0.2441
vn -0.9514 0.0158 -0.3075
vn 0.6255 0.7475 -0.2236
vn -0.0602 0.6875 -0.7237
vn 0.3636 0.7245 0.5855
vn -0.4839 0.6504 0.5855
vn -0.7458 0.6275 -0.2236
vn -0.0535 -0.6109 -0.7899
vn 0.0086 0.0983 -0.9951
vn -0.8018 -0.5455 -0.2441
vn -0.9342 0.1808 -0.3075
vn -0.5160 -0.5705 0.6390
vn -0.5741 0.1493 0.8051
vn 0.4091 -0.6514 0.6390
vn 0.5913 0.0473 0.8051
vn 0.6949 -0.6764 -0.2441
vn 0.9514 0.0158 -0.3075
vn -0.6255 0.7475 -0.2236
vn 0.0601 0.6875 -0.7237
vn -0.3636 0.7246 0.5855
vn 0.4839 0.6504 0.5855
vn 0.7458 0.6275 -0.2236
vt 0.477635 0.787009
vt 0.509377 0.683390
vt 0.581763 0.785266
vt 0.478387 0.785297
vt 0.387021 0.722201
vt 0.477088 0.784334
vt 0.387021 0.854627
vt 0.476386 0.785529
vt 0.476079 0.785340
vt 0.475401 0.786705
vt 0.508830 0.882921
vt 0.058955 0.738511
vt 0.010913 0.722901
vt 0.029264 0.697644
vt 0.058475 0.882279
vt 0.010913 0.866825
vt 0.029080 0.841821
vt 0.476390 0.786040
vt 0.477004 0.785181
vt 0.477060 0.786177
vt 0.477451 0.785622
vt 0.046707 0.183409
vt 0.027255 0.489941
vt 0.063980 0.121902
vt 0.020208 0.176826
vt 0.019468 0.516369
vt 0.010913 0.117951
vt 0.012560 0.495241
vt 0.012743 0.470070
vt 0.015871 0.524196
vt 0.043680 0.010913
vt 0.022944 0.464509
vt 0.058955 0.666170
vt 0.010913 0.650560
vt 0.029264 0.625303
vt 0.040308 0.769985
vt 0.040308 0.819994
vt 0.010913 0.810443
vt 0.024361 0.492300
vt 0.019452 0.521115
vt 0.014324 0.603476
vt 0.058955 0.707291
vt 0.029264 0.748158
vt 0.058475 0.851371
vt 0.029080 0.891830
vt 0.010913 0.494743
vt 0.058955 0.634950
vt 0.029264 0.675817
vt 0.010913 0.779536
vt 0.058475 0.794989
s 1
usemtl BobMat
f 157/267/157 158/268/158 156/269/156
f 159/270/159 160/271/160 158/268/158
f 161/272/161 162/273/162 160/271/160
f 161/272/161 169/274/169 163/275/163
f 162/273/162 165/276/165 164/277/164
f 165/276/165 156/269/156 164/277/164
f 158/278/158 162/279/162 164/280/164
f 167/281/167 169/282/169 168/283/168
f 163/275/163 170/284/170 165/276/165
f 159/270/159 168/285/168 161/272/161
f 165/276/165 167/286/167 157/267/157
f 157/267/157 166/287/166 159/270/159
f 173/288/173 172/289/172 171/290/171
f 175/291/175 174/292/174 173/288/173
f 177/293/177 176/294/176 175/291/175
f 178/295/178 183/296/183 176/294/176
f 179/297/179 178/295/178 177/293/177
f 171/290/171 180/298/180 179/297/179
f 179/299/179 175/300/175 173/301/173
f 183/302/183 185/303/185 182/304/182
f 185/305/185 178/295/178 180/298/180
f 183/296/183 174/292/174 176/294/176
f 182/306/182 180/298/180 172/289/172
f 181/307/181 172/289/172 174/292/174
f 157/267/157 159/270/159 158/268/158
f 159/270/159 161/272/161 160/271/160
f 161/272/161 163/275/163 162/273/162
f 161/272/161 168/285/168 169/274/169
f 162/273/162 163/275/163 165/276/165
f 165/276/165 157/267/157 156/269/156
f 164/280/164 156/308/156 158/278/158
f 158/278/158 160/309/160 162/279/162
f 168/283/168 166/310/166 167/281/167
f 167/281/167 170/311/170 169/282/169
f 163/275/163 169/274/169 170/284/170
f 159/270/159 166/287/166 168/285/168
f 165/276/165 170/284/170 167/286/167
f 157/267/157 167/286/167 166/287/166
f 173/288/173 174/292/174 172/289/172
f 175/291/175 176/294/176 174/292/174
f 177/293/177 178/295/178 176/294/176
f 178/295/178 184/312/184 183/296/183
f 179/297/179 180/298/180 178/295/178
f 171/290/171 172/289/172 180/298/180
f 173/301/173 171/313/171 179/299/179
f 179/299/179 177/314/177 175/300/175
f 182/304/182 181/315/181 183/302/183
f 183/302/183 184/316/184 185/303/185
f 185/305/185 184/312/184 178/295/178
f 183/296/183 181/307/181 174/292/174
f 182/306/182 185/305/185 180/298/180
f 181/307/181 182/306/182 172/289/172
o Legs
v 0.901972 -5.565548 -0.324000
v 0.768624 -4.041370 -0.396000
v 1.208942 -5.538692 -0.100122
v 1.143809 -4.008545 -0.122371
v 1.091690 -5.548950 0.262121
v 1.000501 -4.021083 0.320371
v 0.712255 -5.582146 0.262121
v 0.536747 -4.061656 0.320371
v 0.595002 -5.592404 -0.100122
v 0.393439 -4.074194 -0.122371
v 1.047423 -3.727878 -0.099120
v 0.743523 -3.754466 -0.320760
v 0.931344 -3.738034 0.259500
v 0.555703 -3.770898 0.259500
v 0.439623 -3.781054 -0.099120
v -0.901972 -5.565547 -0.324000
v -0.768624 -4.041369 -0.396000
v -1.208942 -5.538691 -0.100122
v -1.143809 -4.008545 -0.122371
v -1.091690 -5.548949 0.262121
v -1.000501 -4.021083 0.320371
v -0.712254 -5.582146 0.262121
v -0.536747 -4.061656 0.320371
v -0.595002 -5.592403 -0.100122
v -0.393439 -4.074194 -0.122371
v -1.047423 -3.727878 -0.099120
v -0.743523 -3.754465 -0.320760
v -0.931344 -3.738033 0.259500
v -0.555703 -3.770897 0.259500
v -0.439623 -3.781053 -0.099120
vn 0.0535 -0.6109 -0.7899
vn -0.0086 0.0983 -0.9951
vn 0.8018 -0.5455 -0.2441
vn 0.9342 0.1808 -0.3075
vn 0.5159 -0.5705 0.6390
vn 0.5741 0.1493 0.8051
vn -0.4091 -0.6514 0.6390
vn -0.5913 0.0473 0.8051
vn -0.6949 -0.6764 -0.2441
vn -0.9514 0.0158 -0.3075
vn 0.6255 0.7475 -0.2236
vn -0.0602 0.6875 -0.7237
vn 0.3636 0.7245 0.5855
vn -0.4839 0.6504 0.5855
vn -0.7458 0.6275 -0.2236
vn -0.0535 -0.6110 -0.7899
vn 0.0086 0.0983 -0.9951
vn -0.8018 -0.5455 -0.2441
vn -0.9342 0.1808 -0.3075
vn -0.5160 -0.5705 0.6390
vn -0.5741 0.1493 0.8051
vn 0.4091 -0.6514 0.6390
vn 0.5913 0.0473 0.8051
vn 0.6949 -0.6764 -0.2441
vn 0.9514 0.0158 -0.3075
vn -0.6255 0.7475 -0.2236
vn 0.0601 0.6875 -0.7237
vn -0.3636 0.7246 0.5855
vn 0.4839 0.6504 0.5855
vn 0.7458 0.6275 -0.2236
vt 0.764969 0.497711
vt 0.807289 0.359560
vt 0.903799 0.495387
vt 0.765972 0.495428
vt 0.644158 0.411305
vt 0.764241 0.494144
vt 0.644158 0.587864
vt 0.763305 0.495738
vt 0.762895 0.495486
vt 0.761991 0.497305
vt 0.806561 0.625587
vt 0.426608 0.972097
vt 0.387021 0.917610
vt 0.426608 0.904748
vt 0.583001 0.971423
vt 0.583001 0.904748
vt 0.622192 0.917482
vt 0.763309 0.496419
vt 0.764128 0.495274
vt 0.764203 0.496602
vt 0.764724 0.495861
vt 0.644158 0.685104
vt 0.762152 0.775630
vt 0.763215 0.777450
vt 0.903504 0.776982
vt 0.806354 0.647413
vt 0.808099 0.913211
vt 0.765118 0.775324
vt 0.764932 0.777119
vt 0.766117 0.777483
vt 0.644158 0.862149
vt 0.764504 0.778830
vt 0.536953 0.959234
vt 0.472900 0.938422
vt 0.497366 0.904748
vt 0.925331 0.858479
vt 0.988743 0.837875
vt 0.988743 0.879082
vt 0.764466 0.777585
vt 0.764619 0.776387
vt 0.763858 0.777155
vt 0.451074 0.938422
vt 0.387021 0.959234
vt 0.622192 0.958689
vt 0.558779 0.938085
vt 0.536953 0.917610
vt 0.497366 0.972097
vt 0.949552 0.891816
vt 0.949552 0.825141
vt 0.763941 0.776489
s 1
usemtl BobMat
f 187/317/187 188/318/188 186/319/186
f 189/320/189 190/321/190 188/318/188
f 191/322/191 192/323/192 190/321/190
f 191/322/191 199/324/199 193/325/193
f 192/323/192 195/326/195 194/327/194
f 195/326/195 186/319/186 194/327/194
f 188/328/188 192/329/192 194/330/194
f 197/331/197 199/332/199 198/333/198
f 193/325/193 200/334/200 195/326/195
f 189/320/189 198/335/198 191/322/191
f 195/326/195 197/336/197 187/317/187
f 187/317/187 196/337/196 189/320/189
f 201/338/201 204/339/204 202/340/202
f 205/341/205 204/339/204 203/342/203
f 207/343/207 206/344/206 205/341/205
f 214/345/214 206/344/206 208/346/208
f 209/347/209 208/346/208 207/343/207
f 201/338/201 210/348/210 209/347/209
f 209/349/209 205/350/205 203/351/203
f 213/352/213 215/353/215 212/354/212
f 215/355/215 208/346/208 210/348/210
f 213/356/213 204/339/204 206/344/206
f 202/340/202 215/355/215 210/348/210
f 204/339/204 212/357/212 202/340/202
f 187/317/187 189/320/189 188/318/188
f 189/320/189 191/322/191 190/321/190
f 191/322/191 193/325/193 192/323/192
f 191/322/191 198/335/198 199/324/199
f 192/323/192 193/325/193 195/326/195
f 195/326/195 187/317/187 186/319/186
f 194/330/194 186/358/186 188/328/188
f 188/328/188 190/359/190 192/329/192
f 198/333/198 196/360/196 197/331/197
f 197/331/197 200/361/200 199/332/199
f 193/325/193 199/324/199 200/334/200
f 189/320/189 196/337/196 198/335/198
f 195/326/195 200/334/200 197/336/197
f 187/317/187 197/336/197 196/337/196
f 201/338/201 203/342/203 204/339/204
f 205/341/205 206/344/206 204/339/204
f 207/343/207 208/346/208 206/344/206
f 214/345/214 213/356/213 206/344/206
f 209/347/209 210/348/210 208/346/208
f 201/338/201 202/340/202 210/348/210
f 203/351/203 201/362/201 209/349/209
f 209/349/209 207/363/207 205/350/205
f 212/354/212 211/364/211 213/352/213
f 213/352/213 214/365/214 215/353/215
f 215/355/215 214/345/214 208/346/208
f 213/356/213 211/366/211 204/339/204
f 202/340/202 212/357/212 215/355/215
f 204/339/204 211/366/211 212/357/212
o Feet
v 0.571062 -5.820000 0.900000
v 0.571062 -5.680000 0.900000
v 0.571062 -5.820000 0.100000
v 0.571062 -5.580000 0.100000
v 1.071062 -5.820000 0.900000
v 1.071062 -5.680000 0.900000
v 1.171062 -5.820000 0.100000
v 1.171062 -5.580000 0.100000
v 0.571062 -5.580000 -0.211119
v 0.571062 -5.820000 -0.211119
v 1.171062 -5.820000 -0.211119
v 1.171062 -5.580000 -0.211119
v 0.635761 -5.479677 0.066451
v 1.106362 -5.479677 0.066451
v 0.635761 -5.479677 -0.177570
v 1.106362 -5.479677 -0.177570
v -0.571062 -5.819999 0.900000
v -0.571062 -5.679999 0.900000
v -0.571062 -5.819999 0.100000
v -0.571062 -5.579999 0.100000
v -1.071062 -5.819999 0.900000
v -1.071062 -5.679999 0.900000
v -1.171062 -5.819999 0.100000
v -1.171062 -5.579999 0.100000
v -0.571062 -5.579999 -0.211119
v -0.571062 -5.819999 -0.211119
v -1.171062 -5.819999 -0.211119
v -1.171062 -5.579999 -0.211119
v -0.635761 -5.479676 0.066451
v -1.106362 -5.479676 0.066451
v -0.635761 -5.479676 -0.177570
v -1.106362 -5.479676 -0.177570
vn -0.3625 -0.9062 0.2175
vn -0.4803 0.8156 0.3227
vn -0.3714 -0.9285 -0.0000
vn -0.6473 0.7374 0.1929
vn 0.3181 -0.9185 0.2347
vn 0.4269 0.8302 0.3584
vn 0.3898 -0.9206 0.0241
vn 0.6753 0.7052 0.2158
vn -0.8201 0.3252 -0.4707
vn -0.3625 -0.9063 -0.2175
vn 0.3625 -0.9062 -0.2175
vn 0.8201 0.3252 -0.4707
vn -0.2819 0.9399 0.1925
vn 0.2820 0.9399 0.1926
vn -0.2820 0.9399 -0.1926
vn 0.2819 0.9399 -0.1925
vn 0.3625 -0.9062 0.2175
vn 0.4803 0.8156 0.3227
vn 0.3714 -0.9285 -0.0000
vn 0.6473 0.7374 0.1929
vn -0.3181 -0.9185 0.2347
vn -0.4269 0.8302 0.3584
vn -0.3898 -0.9206 0.0241
vn -0.6753 0.7052 0.2158
vn 0.3625 -0.9063 -0.2175
vn -0.3625 -0.9062 -0.2175
vn 0.2819 0.9399 0.1925
vn -0.2820 0.9399 0.1926
vn 0.2820 0.9399 -0.1925
vn -0.2819 0.9399 -0.1925
vt 0.603589 0.762493
vt 0.605426 0.763823
vt 0.603589 0.763828
vt 0.605886 0.837661
vt 0.603589 0.838376
vt 0.603589 0.837661
vt 0.785437 0.333368
vt 0.787286 0.332006
vt 0.787286 0.333341
vt 0.931581 0.211943
vt 0.932920 0.210029
vt 0.932920 0.211943
vt 0.603972 0.835823
vt 0.605886 0.835823
vt 0.925625 0.582241
vt 0.927638 0.584155
vt 0.925625 0.584538
vt 0.603589 0.786617
vt 0.605886 0.788913
vt 0.603589 0.788913
vt 0.784722 0.331077
vt 0.785368 0.330101
vt 0.785437 0.331079
vt 0.605426 0.761534
vt 0.606140 0.763821
vt 0.932125 0.330269
vt 0.931581 0.328467
vt 0.932125 0.328467
vt 0.932543 0.140688
vt 0.931581 0.138638
vt 0.932543 0.138391
vt 0.605639 0.785655
vt 0.605886 0.786617
vt 0.606054 0.760554
vt 0.606140 0.761532
vt 0.761726 0.307668
vt 0.763563 0.306338
vt 0.763563 0.307674
vt 0.605886 0.862755
vt 0.603589 0.862040
vt 0.605886 0.862040
vt 0.787239 0.307668
vt 0.785389 0.306306
vt 0.787239 0.305379
vt 0.932920 0.235684
vt 0.931581 0.233770
vt 0.932920 0.233770
vt 0.605503 0.860202
vt 0.927638 0.558500
vt 0.925625 0.560414
vt 0.925625 0.558117
vt 0.603589 0.813997
vt 0.605886 0.811702
vt 0.605886 0.813997
vt 0.787308 0.304401
vt 0.787953 0.305377
vt 0.761012 0.307666
vt 0.761726 0.305379
vt 0.931581 0.306641
vt 0.932125 0.304839
vt 0.932125 0.306641
vt 0.925625 0.608414
vt 0.926588 0.606365
vt 0.926588 0.608662
vt 0.603589 0.811702
vt 0.605639 0.810739
vt 0.761098 0.304400
vt 0.761012 0.305377
vt 0.605886 0.838376
vt 0.931581 0.210029
vt 0.927638 0.582241
vt 0.784808 0.330100
vt 0.784722 0.333366
vt 0.931581 0.330269
vt 0.931581 0.140440
vt 0.603837 0.785655
vt 0.605494 0.760556
vt 0.603589 0.862755
vt 0.785389 0.307641
vt 0.931581 0.235684
vt 0.603589 0.860202
vt 0.927638 0.560414
vt 0.787868 0.304400
vt 0.787953 0.307666
vt 0.931581 0.304839
vt 0.925625 0.606612
vt 0.603837 0.810739
vt 0.761658 0.304401
s 1
usemtl BobMat
f 217/367/217 218/368/218 216/369/216
f 218/370/218 226/371/226 222/372/222
f 222/373/222 221/374/221 220/375/220
f 221/376/221 216/377/216 220/378/220
f 218/370/218 220/379/220 216/380/216
f 219/381/219 221/382/221 223/383/223
f 224/384/224 226/385/226 225/386/225
f 227/387/227 229/388/229 223/389/223
f 219/390/219 225/391/225 218/368/218
f 222/373/222 227/387/227 223/389/223
f 229/392/229 230/393/230 228/394/228
f 223/395/223 228/396/228 219/397/219
f 224/384/224 231/398/231 227/399/227
f 219/390/219 230/400/230 224/401/224
f 234/402/234 233/403/233 232/404/232
f 242/405/241 234/406/234 238/407/238
f 238/408/238 237/409/237 239/410/239
f 232/411/232 237/412/237 236/413/236
f 234/406/234 236/414/236 238/407/238
f 237/415/237 235/416/235 239/417/239
f 242/418/241 240/419/227 241/420/240
f 245/421/243 243/422/224 239/410/239
f 241/423/240 235/424/235 234/402/234
f 243/422/224 238/408/238 239/410/239
f 246/425/244 245/426/243 244/427/242
f 244/428/242 239/429/239 235/430/235
f 243/431/224 246/432/244 240/419/227
f 246/433/244 235/424/235 240/434/227
f 217/367/217 219/390/219 218/368/218
f 218/370/218 225/435/225 226/371/226
f 222/373/222 223/389/223 221/374/221
f 221/376/221 217/436/217 216/377/216
f 218/370/218 222/372/222 220/379/220
f 219/381/219 217/437/217 221/382/221
f 224/384/224 227/399/227 226/385/226
f 227/387/227 231/438/231 229/388/229
f 219/390/219 224/401/224 225/391/225
f 222/373/222 226/439/226 227/387/227
f 229/392/229 231/440/231 230/393/230
f 223/395/223 229/441/229 228/396/228
f 224/384/224 230/442/230 231/398/231
f 219/390/219 228/443/228 230/400/230
f 234/402/234 235/424/235 233/403/233
f 242/405/241 241/444/240 234/406/234
f 238/408/238 236/445/236 237/409/237
f 232/411/232 233/446/233 237/412/237
f 234/406/234 232/447/232 236/414/236
f 237/415/237 233/448/233 235/416/235
f 242/418/241 243/431/224 240/419/227
f 245/421/243 247/449/245 243/422/224
f 241/423/240 240/434/227 235/424/235
f 243/422/224 242/450/241 238/408/238
f 246/425/244 247/451/245 245/426/243
f 244/428/242 245/452/243 239/429/239
f 243/431/224 247/453/245 246/432/244
f 246/433/244 244/454/242 235/424/235
o Head
v 0.000000 3.200000 -1.000000
v 0.000000 3.200000 1.100000
v 0.900000 3.250000 1.000000
v 1.000000 3.250000 -0.800000
v 0.800000 2.400000 0.700000
v 0.600000 4.000000 0.800000
v 0.900000 2.400000 -0.700000
v 0.800000 4.000000 -0.700000
v 0.000000 2.100000 -0.700000
v 0.000000 4.200000 -0.700000
v 0.000000 2.100000 0.700000
v 0.000000 4.200000 0.800000
v 0.950000 2.825000 -0.800000
v 0.850000 2.825000 1.000000
v 0.000000 2.650000 1.100000
v 0.000000 2.650000 -1.000000
v 1.100000 3.250000 0.000000
v 0.900000 2.400000 0.000000
v 0.800000 4.100000 0.000000
v 0.000000 4.300000 0.000000
v 0.000000 2.100000 0.000000
v 1.050000 2.825000 0.000000
v -0.900000 3.250000 1.000000
v -1.000000 3.250000 -0.800000
v -0.800000 2.400000 0.700000
v -0.600000 4.000000 0.800000
v -0.900000 2.400000 -0.700000
v -0.800000 4.000000 -0.700000
v -0.950000 2.825000 -0.800000
v -0.850000 2.825000 1.000000
v -1.100000 3.250000 0.000000
v -0.900000 2.400000 0.000000
v -0.800000 4.100000 0.000000
v -1.050000 2.825000 0.000000
vn -0.0000 0.1108 -0.9938
vn -0.0000 0.1380 0.9904
vn 0.6867 0.1654 0.7079
vn 0.7465 0.0917 -0.6591
vn 0.6175 -0.6766 0.4012
vn 0.4967 0.6330 0.5938
vn 0.6425 -0.5996 -0.4771
vn 0.5672 0.6011 -0.5630
vn -0.0000 -0.8827 -0.4699
vn -0.0000 0.7895 -0.6138
vn -0.0000 -0.9089 0.4171
vn -0.0000 0.8030 0.5960
vn 0.7121 -0.1477 -0.6863
vn 0.6280 -0.2629 0.7325
vn -0.0000 -0.3380 0.9411
vn -0.0000 -0.2332 -0.9724
vn 0.9925 0.1100 0.0535
vn 0.7094 -0.7030 0.0505
vn 0.6702 0.7388 0.0710
vn -0.0000 1.0000 0.0086
vn -0.0000 -0.9999 0.0104
vn 0.9787 -0.2003 0.0457
vn -0.6867 0.1654 0.7079
vn -0.7465 0.0917 -0.6591
vn -0.6175 -0.6766 0.4012
vn -0.4967 0.6330 0.5938
vn -0.6425 -0.5996 -0.4771
vn -0.5672 0.6011 -0.5630
vn -0.7121 -0.1477 -0.6863
vn -0.6280 -0.2629 0.7325
vn -0.9925 0.1100 0.0535
vn -0.7094 -0.7030 0.0505
vn -0.6702 0.7388 0.0710
vn -0.9787 -0.2003 0.0457
vt 0.556199 0.509880
vt 0.550179 0.464076
vt 0.609399 0.510420
vt 0.504676 0.541944
vt 0.515911 0.520156
vt 0.527345 0.528975
vt 0.535303 0.509953
vt 0.513466 0.498478
vt 0.523889 0.488362
vt 0.504676 0.458868
vt 0.504676 0.377858
vt 0.618471 0.359560
vt 0.535936 0.539041
vt 0.504676 0.564215
vt 0.504676 0.509917
vt 0.515799 0.510214
vt 0.530327 0.478372
vt 0.504676 0.479313
vt 0.550858 0.553050
vt 0.504676 0.647398
vt 0.504676 0.519389
vt 0.622331 0.661563
vt 0.459174 0.464076
vt 0.453153 0.509880
vt 0.399953 0.510420
vt 0.493441 0.520156
vt 0.474049 0.509953
vt 0.495886 0.498478
vt 0.493553 0.510214
vt 0.479025 0.478372
vt 0.390881 0.359560
vt 0.473416 0.539041
vt 0.485464 0.488362
vt 0.458494 0.553050
vt 0.482008 0.528975
vt 0.387021 0.661563
vt 0.504676 0.499343
s 1
usemtl BobMat
f 269/455/267 252/456/250 265/457/263
f 248/458/246 255/459/253 251/460/249
f 264/461/262 253/462/251 250/463/248
f 252/456/250 262/464/260 258/465/256
f 268/466/266 252/456/250 258/465/256
f 248/458/246 260/467/258 263/468/261
f 267/469/265 253/462/251 266/470/264
f 269/455/267 250/463/248 261/471/259
f 253/462/251 249/472/247 250/463/248
f 261/471/259 249/472/247 262/464/260
f 263/468/261 254/473/252 256/474/254
f 251/460/249 269/455/267 260/467/258
f 257/475/255 266/470/264 255/459/253
f 254/473/252 268/476/266 256/474/254
f 255/459/253 264/461/262 251/460/249
f 254/473/252 269/455/267 265/457/263
f 272/477/270 281/478/279 279/479/277
f 248/458/246 275/480/273 257/475/255
f 278/481/276 273/482/271 280/483/278
f 272/477/270 262/464/260 277/484/275
f 268/485/266 272/477/270 279/479/277
f 276/486/274 248/458/246 263/468/261
f 273/482/271 267/469/265 280/483/278
f 281/478/279 270/487/268 278/481/276
f 249/472/247 273/482/271 270/487/268
f 277/484/275 249/472/247 270/487/268
f 274/488/272 263/468/261 256/474/254
f 281/478/279 271/489/269 276/486/274
f 280/483/278 257/475/255 275/480/273
f 268/490/266 274/488/272 256/474/254
f 278/481/276 275/480/273 271/489/269
f 274/488/272 281/478/279 276/486/274
f 269/455/267 261/471/259 252/456/250
f 248/458/246 257/475/255 255/459/253
f 264/461/262 266/470/264 253/462/251
f 252/456/250 261/471/259 262/464/260
f 268/466/266 265/457/263 252/456/250
f 248/458/246 251/460/249 260/467/258
f 267/469/265 259/491/257 253/462/251
f 269/455/267 264/461/262 250/463/248
f 253/462/251 259/491/257 249/472/247
f 261/471/259 250/463/248 249/472/247
f 263/468/261 260/467/258 254/473/252
f 251/460/249 264/461/262 269/455/267
f 257/475/255 267/469/265 266/470/264
f 254/473/252 265/457/263 268/476/266
f 255/459/253 266/470/264 264/461/262
f 254/473/252 260/467/258 269/455/267
f 272/477/270 277/484/275 281/478/279
f 248/458/246 271/489/269 275/480/273
f 278/481/276 270/487/268 273/482/271
f 272/477/270 258/465/256 262/464/260
f 268/485/266 258/465/256 272/477/270
f 276/486/274 271/489/269 248/458/246
f 273/482/271 259/491/257 267/469/265
f 281/478/279 277/484/275 270/487/268
f 249/472/247 259/491/257 273/482/271
f 277/484/275 262/464/260 249/472/247
f 274/488/272 276/486/274 263/468/261
f 281/478/279 278/481/276 271/489/269
f 280/483/278 267/469/265 257/475/255
f 268/490/266 279/479/277 274/488/272
f 278/481/276 280/483/278 275/480/273
f 274/488/272 279/479/277 281/478/279
o Neck
v 0.000000 1.646192 -0.393120
v 0.000000 2.353808 -0.393120
v 0.393120 1.646192 0.000000
v 0.393120 2.353808 0.000000
v 0.000000 1.646192 0.393120
v 0.000000 2.353808 0.393120
v -0.393120 1.646192 0.000000
v -0.393120 2.353808 0.000000
vn -0.0000 -0.6178 -0.7863
vn -0.0000 0.6178 -0.7863
vn 0.7863 -0.6178 -0.0000
vn 0.7863 0.6178 -0.0000
vn -0.0000 -0.6178 0.7863
vn -0.0000 0.6178 0.7863
vn -0.7863 -0.6178 -0.0000
vn -0.7863 0.6178 -0.0000
vt 0.883687 0.060742
vt 0.832903 0.115025
vt 0.832903 0.011283
vt 0.880640 0.064637
vt 0.934717 0.116564
vt 0.010913 0.913656
vt 0.051204 0.953947
vt 0.010913 0.953947
vt 0.884257 0.066858
vt 0.937501 0.010913
vt 0.887335 0.063597
vt 0.965916 0.488043
vt 0.925625 0.447753
vt 0.965916 0.447753
vt 0.051204 0.913656
vt 0.925625 0.488043
s 1
usemtl BobMat
f 283/492/281 284/493/282 282/494/280
f 285/495/283 286/496/284 284/493/282
f 283/497/281 287/498/285 285/499/283
f 287/500/285 288/501/286 286/496/284
f 289/502/287 282/494/280 288/501/286
f 284/503/282 288/504/286 282/505/280
f 283/492/281 285/495/283 284/493/282
f 285/495/283 287/500/285 286/496/284
f 283/497/281 289/506/287 287/498/285
f 287/500/285 289/502/287 288/501/286
f 289/502/287 283/492/281 282/494/280
f 284/503/282 286/507/284 288/504/286
